<svg version="1.1" xmlns="http://www.w3.org/2000/svg" xmlns:xlink="http://www.w3.org/1999/xlink" viewBox="0 0 192 192" width="50" height="50" style="fill: rgb(0, 0, 0);"><g fill="none" fill-rule="nonzero" stroke="none" stroke-width="1" stroke-linecap="butt" stroke-linejoin="miter" stroke-miterlimit="10" stroke-dasharray="" stroke-dashoffset="0" font-family="none" font-weight="none" font-size="none" text-anchor="none" style="mix-blend-mode: normal"><path d="M0,192v-192h192v192z" fill="none"/><g fill="#e74c3c"><g id="surface1"><path d="M85.68,38.4c10.89,7.65 18,20.28 18,34.56v65.28h76.8c2.13,0 3.84,-1.71 3.84,-3.84v-61.44c0,-19.05 -15.495,-34.56 -34.56,-34.56zM63.36,38.52c-18.165,1.005 -32.64,16.035 -32.64,34.44v61.44c0,2.13 1.725,3.84 3.84,3.84h61.44v-65.28c0,-18.405 -14.475,-33.435 -32.64,-34.44zM126.72,65.28c2.835,0 5.265,1.56 6.6,3.84h35.64v23.04h-15.36v-15.36h-20.28c-1.335,2.28 -3.765,3.84 -6.6,3.84c-4.245,0 -7.68,-3.435 -7.68,-7.68c0,-4.245 3.435,-7.68 7.68,-7.68zM53.76,76.8h19.2c2.115,0 3.84,1.725 3.84,3.84c0,2.115 -1.725,3.84 -3.84,3.84h-19.2c-2.115,0 -3.84,-1.725 -3.84,-3.84c0,-2.115 1.725,-3.84 3.84,-3.84zM107.52,145.92v30.72h23.04v-30.72z"/></g></g></g></svg>