<svg version="1.1" xmlns="http://www.w3.org/2000/svg" xmlns:xlink="http://www.w3.org/1999/xlink" viewBox="0 0 192 192" width="50" height="50" style="fill: rgb(0, 0, 0);"><g fill="none" fill-rule="nonzero" stroke="none" stroke-width="1" stroke-linecap="butt" stroke-linejoin="miter" stroke-miterlimit="10" stroke-dasharray="" stroke-dashoffset="0" font-family="none" font-weight="none" font-size="none" text-anchor="none" style="mix-blend-mode: normal"><path d="M0,192v-192h192v192z" fill="none"/><g fill="#e74c3c"><g id="surface1"><path d="M87.48,0c-4.515,-0.015 -9.12,0.63 -13.68,2.04c-24.255,7.53 -38.13,33.555 -30.6,57.84v0.24c0.99,2.73 3.645,11.37 5.28,16.68h-13.92c-6.525,0 -11.52,4.995 -11.52,11.52v92.16c0,6.525 4.995,11.52 11.52,11.52h122.88c6.525,0 11.52,-4.995 11.52,-11.52v-92.16c0,-6.525 -4.995,-11.52 -11.52,-11.52h-100.8c-1.185,-3.81 -4.755,-15.075 -6.24,-19.2h0.12c-6.285,-20.265 5.16,-41.82 25.44,-48.12c20.235,-6.285 41.91,5.1 48.24,25.32c0,0.015 0,0.105 0,0.12c0.87,3.045 5.04,16.56 5.04,16.56c0.345,1.38 1.425,2.475 2.805,2.805c1.395,0.345 2.85,-0.105 3.795,-1.17c0.945,-1.08 1.23,-2.58 0.72,-3.915c0,0 -4.335,-13.98 -5.04,-16.44v-0.12c-5.64,-18.195 -21.69,-30.555 -39.6,-32.4c-1.485,-0.15 -2.94,-0.24 -4.44,-0.24zM96,115.2c6.525,0 11.52,4.995 11.52,11.52c0,3.45 -1.53,6.48 -3.84,8.4v10.8c0,4.23 -3.45,7.68 -7.68,7.68c-4.23,0 -7.68,-3.45 -7.68,-7.68v-10.8c-2.31,-1.92 -3.84,-4.95 -3.84,-8.4c0,-6.525 4.995,-11.52 11.52,-11.52z"/></g></g></g></svg>